<svg fill="#000000" xmlns="http://www.w3.org/2000/svg"  viewBox="0 0 50 50" width="50px" height="50px"><path d="M 25 1 C 11.757813 1 1 11.757813 1 25 C 1 38.242188 11.757813 49 25 49 C 38.242188 49 49 38.242188 49 25 C 49 11.757813 38.242188 1 25 1 Z M 25 3 C 37.160156 3 47 12.839844 47 25 C 47 37.160156 37.160156 47 25 47 C 12.839844 47 3 37.160156 3 25 C 3 12.839844 12.839844 3 25 3 Z M 23.34375 6.84375 L 22.5625 7.15625 L 8.46875 12.46875 L 7.3125 12.90625 L 8 13.9375 L 11 18.5 L 11 18.75 L 10.40625 19.1875 L 5.40625 22.9375 L 6.34375 23.75 L 11 27.875 L 11 35.5625 L 11.46875 35.84375 L 22.46875 42.84375 L 22.90625 43.125 L 39.40625 35.90625 L 40 35.65625 L 40 28.625 L 41.4375 27.90625 L 42.40625 27.40625 L 41.84375 26.5 L 39 21.75 L 39 21 L 42.71875 17.03125 L 43.625 16.09375 L 42.46875 15.46875 L 33.53125 10.6875 L 33.0625 10.4375 L 32.59375 10.6875 L 31.59375 11.21875 L 26.375 9.0625 L 26.03125 8.9375 L 25.65625 9.0625 L 24.78125 9.375 L 23.78125 7.59375 Z M 22.4375 9.3125 L 22.875 10.09375 L 19.65625 11.28125 L 19 11.53125 L 19 13.4375 L 18.53125 13.15625 L 18.09375 12.875 L 17.65625 13.0625 L 11.65625 15.375 L 11.40625 15.46875 L 10.375 13.90625 Z M 25.96875 11.0625 L 31 13.15625 L 31 15.75 L 26.09375 17.875 L 21 14.6875 L 21 12.90625 Z M 33.09375 12.6875 L 40.40625 16.625 L 39 18.125 L 39 17.46875 L 38.40625 17.1875 L 33.40625 15.0625 L 33 14.90625 L 33 12.75 Z M 17.90625 15.09375 L 23.03125 18.3125 L 18.09375 20.25 L 13.125 16.9375 Z M 33 17.09375 L 35.40625 18.125 L 31 20.25 L 28.5625 18.96875 Z M 13 19.21875 L 17 21.90625 L 17 23.25 L 13 20.25 Z M 37 19.5625 L 37 21.34375 L 32 23.6875 L 32 21.96875 Z M 25 19.6875 L 25 22.34375 L 19.15625 24.84375 L 19 24.71875 L 19 22.03125 Z M 27 20.40625 L 30 22 L 30 24.03125 L 27 22.40625 Z M 11 21.25 L 19.90625 27.9375 L 16.15625 29.8125 L 8.59375 23.0625 Z M 37.625 23.28125 L 39.59375 26.5625 L 27.375 32.6875 L 25.1875 29.09375 Z M 25.9375 24.09375 L 28.34375 25.40625 L 23.125 27.84375 L 20.96875 26.21875 Z M 21.6875 29.28125 L 22 29.5 L 22 40.1875 L 13 34.46875 L 13 29.65625 L 15.34375 31.75 L 15.84375 32.1875 L 16.4375 31.90625 Z M 38 29.625 L 38 34.34375 L 24 40.46875 L 24 30.90625 L 26.15625 34.5 L 26.625 35.3125 Z"/></svg>