<?xml version="1.0" standalone="no"?>
<!DOCTYPE svg PUBLIC "-//W3C//DTD SVG 20010904//EN"
 "http://www.w3.org/TR/2001/REC-SVG-20010904/DTD/svg10.dtd">
<svg version="1.0" xmlns="http://www.w3.org/2000/svg"
 width="212.000000pt" height="212.000000pt" viewBox="0 0 212.000000 212.000000"
 preserveAspectRatio="xMidYMid meet">
<metadata>
Created by potrace 1.10, written by Peter Selinger 2001-2011
</metadata>
<g transform="translate(0.000000,212.000000) scale(0.100000,-0.100000)"
fill="#000000" stroke="none">
<path d="M325 2091 c-88 -32 -126 -55 -184 -112 -43 -44 -61 -69 -81 -115 -13
-27 -27 -58 -33 -69 -11 -20 -24 -205 -14 -195 2 3 10 42 16 87 21 159 103
287 223 349 27 13 50 24 53 24 3 0 10 2 17 5 70 21 89 26 95 22 5 -3 22 1 38
8 30 13 29 13 -25 14 -30 0 -77 -8 -105 -18z"/>
<path d="M1629 2101 c8 -5 42 -12 75 -16 79 -9 119 -22 182 -61 63 -39 106
-84 143 -149 29 -50 64 -152 57 -164 -2 -3 2 -29 10 -56 l14 -50 -3 85 c-5
116 -44 204 -128 289 -47 46 -73 64 -136 93 -53 24 -85 32 -148 35 -55 3 -75
1 -66 -6z"/>
<path d="M1027 1833 c-15 -2 -55 -19 -90 -36 -55 -29 -305 -174 -397 -232 -19
-12 -55 -34 -80 -48 -58 -33 -103 -77 -126 -125 -17 -33 -18 -66 -18 -337 1
-340 2 -348 76 -408 41 -33 442 -277 558 -339 46 -24 65 -29 117 -27 67 2 67
2 423 215 58 34 130 77 160 95 81 47 126 97 144 160 21 76 22 541 0 614 -20
70 -65 115 -174 176 -80 45 -118 67 -159 93 -22 15 -43 26 -45 26 -3 0 -43 24
-88 53 -161 102 -231 130 -301 120z m104 -34 c19 -7 48 -22 64 -34 17 -12 50
-32 75 -45 25 -12 47 -26 50 -30 3 -4 30 -20 60 -35 30 -15 57 -31 60 -35 3
-3 30 -20 60 -37 108 -59 155 -87 168 -100 7 -7 18 -13 22 -13 5 0 28 -23 50
-51 l40 -51 0 -303 c0 -167 -4 -315 -9 -328 -16 -42 -81 -101 -157 -142 -27
-14 -78 -44 -114 -65 -36 -21 -87 -51 -114 -65 -27 -15 -54 -31 -60 -36 -6 -6
-49 -32 -95 -59 -143 -83 -199 -83 -342 0 -46 27 -91 55 -100 61 -22 15 -103
62 -174 100 -33 17 -62 35 -65 39 -3 4 -25 17 -49 30 -69 34 -136 95 -152 137
-5 13 -9 161 -9 328 l0 303 40 51 c22 28 45 51 50 51 4 0 15 6 22 13 13 13 60
41 168 100 30 17 57 34 60 37 3 4 30 20 60 35 30 15 57 31 60 35 3 4 21 15 40
25 19 10 53 30 75 45 72 49 146 62 216 39z"/>
<path d="M505 1043 c-14 -13 -16 -33 -13 -125 5 -128 14 -146 104 -195 32 -17
75 -40 94 -51 57 -31 60 -25 60 114 0 123 0 124 -28 154 -16 16 -50 39 -75 50
-25 11 -49 25 -52 30 -4 7 -62 40 -71 40 -1 0 -10 -7 -19 -17z m66 -38 c24
-13 54 -29 67 -35 23 -10 37 -20 73 -52 17 -16 19 -32 19 -128 0 -60 -4 -110
-8 -110 -4 0 -32 16 -62 36 -30 19 -71 44 -91 54 -27 14 -38 28 -43 51 -6 33
-9 209 -3 209 2 0 24 -11 48 -25z"/>
<path d="M1383 967 c-4 -8 -31 -27 -60 -43 -190 -106 -188 -104 -181 -178 l3
-37 55 34 c30 18 66 40 80 48 14 8 33 20 42 27 9 8 31 22 50 31 31 17 33 22
36 75 3 54 -7 72 -25 43z m4 -57 c1 -14 -14 -30 -50 -53 -117 -76 -160 -98
-169 -89 -15 15 6 45 49 68 21 12 65 38 97 58 33 20 63 36 66 36 3 0 6 -9 7
-20z"/>
<path d="M1560 854 c-30 -18 -75 -45 -100 -59 -25 -14 -74 -44 -110 -65 -36
-22 -86 -51 -112 -65 -27 -14 -48 -29 -48 -34 0 -4 -11 -13 -25 -19 -22 -10
-25 -18 -25 -62 l0 -50 59 30 c33 16 62 34 65 39 4 5 28 20 54 33 26 13 53 29
61 36 7 7 29 22 50 33 183 101 201 116 201 167 0 23 -3 43 -7 45 -5 2 -33 -11
-63 -29z m42 -26 c-7 -30 -16 -38 -87 -78 -33 -19 -61 -37 -63 -42 -2 -4 -8
-8 -13 -8 -4 0 -68 -36 -141 -80 -107 -64 -134 -76 -137 -62 -4 19 38 57 96
87 21 11 43 24 48 28 17 14 290 176 297 176 3 1 3 -9 0 -21z"/>
<path d="M2095 518 c-2 -18 -7 -58 -10 -88 -9 -118 -41 -186 -128 -274 -66
-66 -112 -89 -227 -116 -113 -26 -118 -30 -35 -26 64 2 94 9 149 35 72 33 79
37 134 93 53 52 58 59 92 128 29 58 33 77 37 173 5 104 0 141 -12 75z"/>
<path d="M13 430 c3 -70 10 -97 36 -154 33 -72 37 -79 93 -134 55 -56 62 -60
134 -93 52 -24 88 -33 147 -37 46 -3 77 -1 77 5 0 5 -20 11 -45 11 -67 3 -194
47 -248 87 -47 35 -136 145 -138 171 -2 19 -4 24 -18 59 -7 17 -15 53 -18 80
-10 92 -23 95 -20 5z"/>
</g>
</svg>
