<?xml version="1.0" standalone="no"?>
<!DOCTYPE svg PUBLIC "-//W3C//DTD SVG 20010904//EN"
 "http://www.w3.org/TR/2001/REC-SVG-20010904/DTD/svg10.dtd">
<svg version="1.0" xmlns="http://www.w3.org/2000/svg"
 width="300.000000pt" height="300.000000pt" viewBox="0 0 300.000000 300.000000"
 preserveAspectRatio="xMidYMid meet">
<metadata>
Created by potrace 1.10, written by Peter Selinger 2001-2011
</metadata>
<g transform="translate(0.000000,300.000000) scale(0.100000,-0.100000)"
fill="#000000" stroke="none">
<path d="M1622 2983 c-12 -3 -40 -21 -62 -42 -32 -30 -43 -35 -62 -28 -145 54
-441 68 -627 28 -118 -25 -256 -75 -348 -127 -64 -35 -492 -301 -505 -313 -4
-3 -10 -19 -14 -35 l-7 -30 26 25 c23 21 325 215 455 292 143 85 287 136 487
172 17 3 89 6 160 6 127 0 242 -15 349 -46 45 -14 50 -13 75 4 14 10 35 28 45
40 14 15 31 21 61 21 60 0 85 -29 85 -101 1 -64 7 -73 85 -126 33 -22 84 -59
113 -82 60 -48 61 -54 41 -213 -13 -95 -29 -127 -77 -150 -52 -25 -41 -50 60
-131 164 -131 168 -136 623 -752 143 -192 278 -386 301 -430 23 -45 49 -116
59 -160 10 -44 24 -102 31 -130 l12 -50 1 65 c1 80 -28 189 -75 284 -20 39
-86 139 -147 221 -60 83 -210 285 -331 450 -235 319 -355 456 -476 541 -38 27
-69 51 -70 54 0 4 16 12 35 19 20 7 42 23 51 36 17 26 44 183 44 259 0 45 -4
53 -43 90 -23 23 -79 66 -124 96 l-82 55 -1 53 c0 68 -22 107 -72 127 -21 8
-42 14 -46 14 -4 -1 -17 -4 -30 -6z"/>
<path d="M1525 2778 c-82 -85 -124 -137 -165 -208 -42 -73 -67 -103 -105 -130
-27 -19 -65 -50 -83 -68 -32 -30 -34 -36 -29 -77 10 -67 43 -154 81 -210 31
-44 37 -66 57 -190 15 -97 23 -203 27 -344 4 -178 1 -236 -24 -458 l-28 -253
39 -39 c22 -21 52 -45 66 -54 24 -16 27 -16 43 2 9 10 18 27 21 37 34 162 72
301 96 351 77 159 296 294 369 228 32 -29 27 -96 -11 -151 -55 -80 -75 -149
-108 -364 -36 -240 -36 -242 -13 -263 24 -22 159 -68 177 -61 19 8 31 56 45
179 35 325 47 383 101 466 56 88 123 138 323 244 10 6 25 19 33 31 15 23 18
18 -181 288 -131 178 -191 246 -221 246 -13 0 -72 -12 -130 -26 -110 -26 -145
-26 -177 3 -26 23 -23 88 7 168 25 65 25 68 8 87 -25 28 -91 60 -116 56 -13
-2 -30 -20 -46 -53 -28 -54 -63 -69 -69 -30 -1 11 29 104 69 205 75 194 98
288 99 406 0 67 -10 94 -34 94 -6 0 -61 -51 -121 -112z m124 -16 c-10 -136
-20 -174 -100 -381 -38 -97 -69 -185 -69 -195 0 -26 28 -56 52 -56 35 0 56 19
74 69 l17 49 54 -26 c29 -14 53 -29 53 -32 0 -3 -11 -35 -25 -70 -35 -88 -33
-143 4 -180 44 -45 70 -47 210 -14 l126 29 36 -40 c42 -47 328 -430 336 -451
3 -8 1 -14 -5 -14 -5 0 -60 -28 -122 -62 -131 -73 -211 -150 -259 -250 -39
-83 -45 -114 -72 -368 -13 -118 -23 -216 -24 -217 -1 -2 -39 11 -86 27 -50 18
-83 35 -82 42 41 279 69 442 82 478 10 25 37 74 60 110 54 82 53 126 -3 177
-48 45 -88 44 -180 -4 -98 -52 -184 -140 -229 -234 -32 -68 -97 -315 -97 -368
0 -12 -3 -21 -6 -21 -4 0 -30 20 -58 44 l-52 44 29 234 c26 213 28 253 23 463
-7 303 -35 490 -83 550 -52 65 -94 196 -78 245 4 11 25 30 47 41 59 30 117 93
170 185 31 55 82 119 154 193 59 61 108 110 109 109 1 -2 -2 -49 -6 -106z"/>
<path d="M1763 1765 c-117 -32 -141 -51 -129 -100 11 -44 39 -50 127 -24 l79
23 53 -22 c29 -12 59 -22 68 -22 23 0 49 33 49 62 0 65 -139 112 -247 83z
m167 -43 c31 -12 46 -24 48 -38 4 -28 -22 -37 -56 -20 -52 27 -96 29 -167 7
-51 -16 -71 -18 -81 -10 -27 22 -14 38 49 58 76 24 148 25 207 3z"/>
<path d="M1010 2875 c-8 -2 -47 -8 -87 -15 -117 -19 -117 -18 -33 -217 40 -92
80 -176 89 -186 14 -15 27 -16 75 -11 31 4 67 15 79 24 l21 18 -21 176 c-25
214 -34 228 -123 211z m75 -57 c3 -18 12 -89 20 -158 8 -69 17 -134 20 -146 4
-19 -2 -22 -62 -32 -37 -6 -68 -10 -69 -9 -4 6 -144 334 -144 339 0 4 58 15
170 32 56 8 59 7 65 -26z"/>
<path d="M1197 2869 c-21 -12 -22 -64 -3 -205 13 -99 28 -144 46 -144 11 0 48
49 84 112 14 26 49 73 76 104 28 32 50 63 50 70 0 29 -62 50 -200 68 -20 2
-44 0 -53 -5z m98 -34 c28 -4 69 -11 92 -17 l43 -10 -53 -57 c-28 -32 -70 -90
-92 -129 -22 -40 -43 -72 -47 -72 -5 0 -8 18 -8 39 0 37 -13 151 -26 229 -5
30 -3 32 18 28 13 -3 46 -8 73 -11z"/>
<path d="M710 2802 c-8 -2 -51 -21 -95 -42 -86 -40 -145 -83 -145 -106 0 -8
53 -69 118 -137 157 -164 171 -177 179 -177 5 0 35 15 68 33 44 23 61 38 63
56 5 30 -135 359 -157 370 -9 5 -23 6 -31 3z m95 -189 c39 -91 71 -170 73
-174 2 -5 -9 -14 -25 -21 -15 -7 -40 -20 -55 -30 l-27 -19 -113 118 c-62 65
-125 130 -140 145 l-26 28 33 20 c33 20 196 99 205 99 3 0 37 -74 75 -166z"/>
<path d="M1743 2668 c-6 -7 -16 -38 -23 -68 -7 -30 -28 -98 -47 -150 l-35 -94
30 -27 c45 -40 97 -45 163 -16 30 13 59 30 65 38 15 18 38 181 30 207 -8 25
-132 122 -156 122 -10 0 -22 -6 -27 -12z m123 -83 c22 -16 39 -35 38 -40 -1
-6 -8 -48 -14 -95 l-11 -86 -61 -23 c-59 -23 -60 -23 -101 -5 -23 10 -43 19
-45 20 -2 1 12 44 31 96 19 51 41 119 47 150 l13 57 31 -21 c17 -12 49 -36 72
-53z"/>
<path d="M260 2547 c-95 -61 -115 -77 -115 -98 0 -19 36 -55 165 -166 91 -78
172 -142 181 -143 27 0 194 132 197 157 3 21 -30 59 -239 275 -26 26 -53 48
-60 48 -8 0 -66 -33 -129 -73z m274 -103 c76 -79 137 -146 135 -147 -2 -2 -38
-28 -79 -58 -41 -30 -81 -59 -88 -63 -8 -5 -61 34 -150 111 -76 65 -152 129
-168 142 -16 13 -24 25 -19 27 6 2 55 33 110 68 55 35 105 64 110 65 6 0 72
-65 149 -145z"/>
<path d="M985 2376 c-63 -20 -150 -64 -170 -86 -18 -20 -17 -29 63 -373 114
-490 134 -609 148 -899 5 -102 11 -151 20 -159 17 -14 118 8 139 31 10 11 23
84 41 231 23 188 25 239 21 424 -4 140 -12 250 -25 332 -18 106 -26 130 -62
190 -47 79 -69 143 -77 233 -8 94 -18 101 -98 76z m67 -48 c-8 -70 42 -218
101 -302 24 -34 52 -201 67 -400 10 -139 3 -287 -25 -521 -25 -213 -23 -205
-53 -205 -15 0 -39 -6 -53 -14 l-26 -13 -7 141 c-14 283 -38 430 -146 896 -44
190 -78 350 -76 357 6 16 56 41 136 69 84 30 87 30 82 -8z"/>
<path d="M102 2338 c-18 -18 -16 -188 2 -213 8 -11 52 -46 99 -78 98 -67 102
-67 171 -3 33 31 45 48 40 60 -8 20 -273 246 -289 246 -6 0 -16 -5 -23 -12z
m257 -271 c-59 -50 -58 -50 -149 13 l-85 57 -3 97 -3 97 137 -118 137 -117
-34 -29z"/>
<path d="M626 2155 c-48 -37 -90 -73 -93 -81 -3 -8 20 -142 50 -297 84 -425
95 -529 113 -1099 7 -221 14 -254 51 -232 33 19 212 267 219 304 9 43 -2 353
-16 480 -19 166 -48 316 -123 638 -54 229 -79 319 -93 333 -20 19 -21 19 -108
-46z m104 19 c0 -9 33 -161 74 -338 109 -470 123 -563 132 -886 l6 -215 -103
-138 -104 -138 -7 163 c-4 90 -12 267 -17 393 -13 287 -28 409 -97 755 -30
152 -54 281 -54 288 0 11 147 129 163 131 4 1 7 -6 7 -15z"/>
<path d="M1794 2093 c-22 -49 -24 -60 -13 -81 12 -21 18 -23 50 -18 61 10 111
30 123 49 9 16 4 25 -39 63 -69 61 -89 59 -121 -13z m90 5 c22 -17 45 -35 49
-39 5 -4 -15 -12 -44 -18 -30 -7 -63 -14 -75 -17 l-22 -6 21 56 c12 31 24 56
26 56 2 0 22 -14 45 -32z"/>
<path d="M100 1999 c-8 -13 -13 -160 -17 -425 -4 -234 -10 -407 -16 -411 -5
-3 -22 5 -39 17 l-30 22 7 -23 c15 -49 61 -63 95 -29 19 19 20 33 20 434 l0
415 60 -42 c34 -23 63 -50 65 -62 2 -11 18 -128 35 -260 34 -272 53 -549 45
-675 -3 -47 -12 -211 -20 -365 -9 -154 -18 -304 -21 -334 l-6 -53 -34 33 c-88
86 -124 182 -124 334 0 112 -11 135 -62 135 -28 0 -42 -13 -53 -49 l-7 -23 29
21 c52 39 63 23 63 -89 0 -156 44 -267 142 -355 40 -37 41 -37 60 -18 17 17
21 52 38 334 21 340 25 688 10 839 -17 171 -60 494 -70 530 -7 27 -23 45 -72
78 -72 48 -83 50 -98 21z"/>
<path d="M393 1979 c-24 -17 -46 -41 -49 -56 -4 -15 3 -106 15 -202 60 -471
64 -655 30 -1210 -24 -401 -25 -393 52 -405 51 -8 59 -2 142 109 l60 80 -7
285 c-13 590 -30 771 -106 1160 -41 210 -60 270 -82 270 -7 -1 -32 -14 -55
-31z m102 -220 c82 -404 89 -473 110 -1057 l15 -392 -67 -88 c-37 -48 -67 -88
-68 -89 -1 -4 -77 15 -82 21 -3 2 4 161 16 353 35 569 29 771 -33 1233 l-24
175 42 36 c22 21 42 36 44 35 1 -2 22 -104 47 -227z"/>
<path d="M2370 1331 c-167 -92 -241 -169 -280 -292 -11 -37 -30 -161 -45 -291
-27 -237 -25 -259 15 -272 8 -2 40 -14 70 -25 70 -27 88 -26 100 2 5 12 14
137 19 277 10 284 15 308 80 394 33 45 107 99 191 141 10 5 24 19 31 32 10 19
8 27 -15 58 -15 19 -35 35 -44 35 -9 -1 -64 -27 -122 -59z m146 4 c9 -14 15
-27 13 -29 -2 -2 -35 -20 -74 -42 -128 -70 -203 -169 -224 -295 -5 -30 -12
-155 -15 -278 -3 -123 -7 -226 -9 -227 -7 -7 -157 48 -157 58 0 35 53 460 61
493 30 115 108 199 264 284 61 34 113 61 117 61 4 0 15 -11 24 -25z"/>
<path d="M1732 1281 c-67 -44 -134 -122 -164 -191 -24 -56 -88 -329 -88 -376
0 -33 3 -37 58 -61 83 -36 117 -40 131 -14 6 11 25 109 41 218 37 239 47 278
100 366 33 55 39 71 29 83 -18 22 -41 17 -107 -25z m74 -14 c-61 -80 -86 -159
-121 -389 -19 -121 -36 -222 -38 -224 -4 -5 -129 36 -139 45 -11 10 67 343 92
392 35 68 84 124 151 168 74 50 88 52 55 8z"/>
<path d="M2515 1195 c-166 -93 -205 -172 -205 -418 0 -173 7 -192 63 -176 18
5 46 9 64 9 18 0 42 8 53 17 19 16 21 29 19 129 -1 94 2 117 19 151 33 64 69
100 127 127 75 36 77 52 18 134 -27 37 -55 68 -63 70 -8 1 -51 -18 -95 -43z
m138 -45 l46 -59 -43 -20 c-129 -56 -194 -183 -174 -336 11 -82 3 -95 -59 -95
-24 0 -53 -5 -65 -11 -11 -6 -21 -9 -22 -7 -1 2 1 82 4 178 6 162 8 179 32
225 14 28 38 61 53 75 23 22 160 107 176 109 3 1 27 -26 52 -59z"/>
<path d="M2716 999 c-57 -21 -100 -59 -127 -111 -16 -31 -19 -57 -18 -146 1
-63 -3 -117 -9 -129 -18 -34 -59 -53 -128 -62 -54 -6 -70 -13 -97 -39 -29 -30
-32 -38 -32 -96 0 -55 4 -70 30 -107 39 -56 107 -98 171 -105 42 -5 52 -3 68
15 20 22 20 22 -7 77 -31 63 -33 79 -11 88 23 9 41 -9 74 -74 16 -31 35 -62
44 -69 39 -33 158 56 206 154 23 46 25 61 24 195 0 110 -4 160 -18 205 -25 83
-83 203 -104 214 -11 6 -33 3 -66 -10z m113 -130 c40 -102 54 -190 49 -317 -3
-96 -7 -113 -33 -161 -18 -33 -47 -67 -73 -85 -77 -54 -76 -54 -125 32 -37 68
-46 77 -74 80 -63 6 -81 -52 -38 -123 35 -56 32 -63 -17 -58 -106 10 -188 86
-188 174 0 73 28 100 115 110 125 15 176 86 156 216 -18 115 16 184 114 229
l50 24 17 -23 c10 -12 31 -56 47 -98z"/>
<path d="M23 968 c-45 -58 5 -131 66 -99 50 27 29 111 -28 111 -16 0 -33 -6
-38 -12z m57 -33 c17 -20 -3 -45 -31 -38 -29 8 -35 24 -14 40 24 17 30 16 45
-2z"/>
<path d="M1093 778 c-16 -18 -130 -166 -253 -328 -122 -162 -241 -319 -264
-349 l-40 -54 -76 6 c-190 13 -355 150 -411 340 -36 123 -39 129 -35 54 4 -77
49 -180 107 -251 45 -54 139 -121 204 -145 65 -24 179 -44 206 -36 10 4 146
174 300 378 155 205 287 375 293 379 27 18 60 5 127 -51 38 -33 105 -77 147
-99 42 -22 244 -97 447 -166 221 -75 374 -132 380 -142 67 -108 112 -150 196
-179 53 -19 164 -19 252 0 172 36 299 166 316 324 8 81 -1 85 -19 9 -48 -206
-205 -318 -445 -318 -109 0 -198 51 -256 146 l-35 59 -135 46 c-74 26 -240 82
-369 127 -129 44 -256 89 -282 100 -44 20 -157 87 -168 101 -3 3 -24 23 -48
44 -55 49 -96 50 -139 5z"/>
</g>
</svg>
